<svg xmlns="http://www.w3.org/2000/svg" viewBox="0 0 32 32" fill="none">
  <rect width="32" height="32" rx="8" fill="#0F4C75"/>
  <path d="M8 20.5C8 17.5 10 15 13 14.5C11.5 13.5 10.5 11.8 10.5 10C10.5 7 13 4.5 16 4.5C19 4.5 21.5 7 21.5 10C21.5 11.8 20.5 13.5 19 14.5C22 15 24 17.5 24 20.5V23C24 24.7 22.7 26 21 26H11C9.3 26 8 24.7 8 23V20.5Z" fill="white"/>
  <circle cx="16" cy="10" r="3.5" fill="#0F4C75"/>
  <path d="M11 20.5C11 18.3 13.2 16.5 16 16.5C18.8 16.5 21 18.3 21 20.5V23H11V20.5Z" fill="#0F4C75"/>
  <circle cx="22" cy="8" r="4" fill="#D4A843"/>
  <path d="M20.5 8L21.5 9L23.5 7" stroke="white" stroke-width="1.5" stroke-linecap="round" stroke-linejoin="round"/>
</svg>
